<svg xmlns="http://www.w3.org/2000/svg" x="0px" y="0px" width="100" height="100" viewBox="0,0,255.9976,255.9976"></svg><a href="https://storyset.com/online">Online illustrations by Storyset</a>
<defs><clipPath id="clip-1"><path d="M0,255.9976l0,-90.22201c18.80295,25.13578 59.81121,66.52071 126,66.52071c71.39366,0 113.47305,-48.12894 129.9976,-72.08608v95.78739zM0,0h255.9976v97.04804c-16.85586,-22.22563 -62.92696,-73.34434 -129.9976,-73.34434c-62.32887,0 -106.53271,44.16093 -126,68.24349z" id="overlayBgMask" fill="none" stroke="none" stroke-width="1" stroke-linecap="butt" stroke-linejoin="miter"></path></clipPath></defs><g fill="#ffffff" fill-rule="nonzero" stroke="none" stroke-width="1" stroke-linecap="butt" stroke-linejoin="miter" stroke-miterlimit="10" stroke-dasharray="" stroke-dashoffset="0" font-family="none" font-weight="none" font-size="none" text-anchor="none" style="mix-blend-mode: normal"><path d="M0,255.9976v-255.9976h255.9976v255.9976z" id="bgRectangle"></path></g><g clip-path="url(#clip-1)" fill="none" fill-rule="nonzero" stroke="none" stroke-width="none" stroke-linecap="none" stroke-linejoin="none" stroke-miterlimit="10" stroke-dasharray="" stroke-dashoffset="0" font-family="none" font-weight="none" font-size="none" text-anchor="none" style="mix-blend-mode: normal"><g transform="scale(5.33333,5.33333)"><path d="M40,22h-23c-1.7,0 -3,1.3 -3,3v19c0,1.7 1.3,3 3,3h23c1.7,0 3,-1.3 3,-3v-19c0,-1.7 -1.3,-3 -3,-3z" fill-opacity="0" fill="#fcc419" stroke="none" stroke-width="1" stroke-linecap="butt" stroke-linejoin="miter"></path><path d="M17.5,17.5c0,0 0,-1.9 0,-5.5c0,-3.6 2.9,-6.5 6.5,-6.5c3.6,0 6.5,2.9 6.5,6.5c0,2 0,5.5 0,5.5" fill="none" stroke-opacity="0" stroke="#fcc419" stroke-width="3" stroke-linecap="butt" stroke-linejoin="miter"></path><circle cx="24" cy="30" r="3" fill-opacity="0" fill="#fcc419" stroke="none" stroke-width="1" stroke-linecap="butt" stroke-linejoin="miter"></circle><path d="M24,30v6" fill="none" stroke-opacity="0" stroke="#fcc419" stroke-width="3" stroke-linecap="round" stroke-linejoin="round"></path><path d="M23.9,42.5h-11.4c-1.7,0 -3,-1.3 -3,-3v-19c0,-1.7 1.3,-3 3,-3h5" fill="none" stroke-opacity="0" stroke="#fcc419" stroke-width="3" stroke-linecap="round" stroke-linejoin="round"></path><path d="M24,17.5h11.5c1.7,0 3,1.3 3,3v19c0,1.7 -1.3,3 -3,3h-5" fill="none" stroke-opacity="0" stroke="#fcc419" stroke-width="3" stroke-linecap="round" stroke-linejoin="round"></path></g></g><g fill="#000000" fill-rule="nonzero" stroke="none" stroke-width="1" stroke-linecap="butt" stroke-linejoin="miter" stroke-miterlimit="10" stroke-dasharray="" stroke-dashoffset="0" font-family="none" font-weight="none" font-size="none" text-anchor="none" style="mix-blend-mode: normal"><g transform="translate(8.66667,49.77778) scale(13.03704,13.03704)" id="overlay"><path d="M11,6c0,1.105 -0.895,2 -2,2c-1.105,0 -2,-0.895 -2,-2c0,-1.105 0.895,-2 2,-2c1.105,0 2,0.895 2,2zM18,6c0,0.207 -0.078,0.388 -0.185,0.547c0,0 -2.815,5.453 -8.815,5.453c-6,0 -8.817,-5.456 -8.817,-5.456c-0.106,-0.158 -0.183,-0.338 -0.183,-0.544c0,-0.205 0.077,-0.385 0.182,-0.543c0,0 3.418,-5.457 8.818,-5.457c5.4,0 8.816,5.455 8.816,5.455c0.107,0.159 0.184,0.339 0.184,0.545zM13,6c0,-2.209 -1.791,-4 -4,-4c-2.209,0 -4,1.791 -4,4c0,2.209 1.791,4 4,4c2.209,0 4,-1.791 4,-4z"></path></g></g>
</svg>